<svg xmlns="http://www.w3.org/2000/svg" width="176" height="118.802" viewBox="0 0 176 118.802"><defs><style>.a{fill:#fec809;}.b{fill:#fdc80a;}.c{fill:#fcc809;}.d{fill:#fcc80a;}.e{fill:#fcc80b;}.f{fill:#fbc70d;}.g{fill:#fec808;}.h{fill:#fdfdfd;}.i{fill:#fdc809;}.j{fill:#fefefe;}</style></defs><g transform="translate(0 0.12)"><path class="a" d="M803.648,566.825a12.454,12.454,0,0,0,2.394.415,25.072,25.072,0,0,1,18.2,13.985,24.305,24.305,0,0,1,2.093,7.151,37.942,37.942,0,0,1,.276,5.047q-.007,9.93,0,19.859c0,.783.009.754-.738.488q-3.014-1.058-6.047-2.062a.838.838,0,0,1-.689-.949c.034-2.365,0-4.732.028-7.1.007-.56-.135-.71-.7-.707-5.377.023-10.754.013-16.132.011a1.026,1.026,0,0,1-.854-.231c-2.353-2.375-4.723-4.732-7.173-7.18l1.038-.071a1.5,1.5,0,0,1,.566-.044h21.955a1.524,1.524,0,0,1,.566.043c.5.1.748-.042.732-.61-.035-1.177-.024-2.354-.033-3.537-.122-.33.043-.69-.1-1.017a16.266,16.266,0,0,0-3.063-8.528,16.893,16.893,0,0,0-10.213-6.958,12.815,12.815,0,0,0-2.776-.435,11.029,11.029,0,0,0-2.5,0,16.377,16.377,0,0,0-9.713,3.795,17.14,17.14,0,0,0-5.8,8.8,11.536,11.536,0,0,0-.539,3.341c-.155.323.017.681-.106,1.007-.009,1.649-.025,3.293-.025,4.947,0,7.267.009,14.534-.016,21.8,0,.65.156.82.811.818q20.295-.03,40.591-.013c1.071,0,.928-.149.933.964.007,1.96-.017,3.92.015,5.88.008.52-.157.623-.645.622q-24.272-.018-48.545,0c-.454,0-.61-.1-.61-.584.023-11.785,0-23.57.065-35.355a22.405,22.405,0,0,1,2.109-8.869,24.666,24.666,0,0,1,3.4-5.553,24.289,24.289,0,0,1,6.366-5.528,25.49,25.49,0,0,1,8-3.151,19.71,19.71,0,0,0,2.741-.506h2.869a.776.776,0,0,0,.717,0Z" transform="translate(-713.725 -566.93)"/><path class="a" d="M1575.588,1267.522c-5.618,0-11.236-.013-16.853.016-.652,0-.778-.185-.776-.8q.035-10.183,0-20.369c0-.61.128-.8.778-.8q7.888.044,15.777,0c.6,0,.789.189.765.783-.043,1.05-.047,2.105,0,3.154.027.567-.176.665-.692.662-3.394-.022-6.789,0-10.183-.024-.6,0-.779.139-.743.743a20.907,20.907,0,0,1,0,2.724c-.044.641.207.732.769.721,3.011-.027,6.024,0,9.036-.027.577,0,.722.164.7.715-.044,1.05-.036,2.1,0,3.154.013.462-.113.61-.592.6-1.289-.026-2.581,0-3.871.015-1.692.1-3.386.014-5.079.046a2.4,2.4,0,0,0-.854.053,22.748,22.748,0,0,0-.037,4.036,1.382,1.382,0,0,0,.77.071q5.156,0,10.312.007a1.546,1.546,0,0,1,.773.066Z" transform="translate(-1399.588 -1162.9)"/><path class="a" d="M1060.988,1267.512c-2.135,0-4.14-.01-6.144.01-.32,0-.4-.191-.506-.391-.913-1.726-1.829-3.449-2.721-5.189-.174-.343-.35-.532-.739-.458-.506.1-.749-.159-.955-.6-.61-1.3-1.308-2.561-1.843-3.982h3.2c3.06.013,4.131-2.166,3.469-4.685a2.93,2.93,0,0,0-2.385-1.931c-1.544-.221-3.091-.056-4.635-.137-.513-.027-.627.146-.626.641.017,5.33,0,10.661.023,15.993,0,.6-.16.765-.753.747-1.481-.042-2.964-.025-4.446-.006-.394,0-.534-.093-.533-.515q.018-10.435,0-20.869c0-.439.122-.57.563-.567,3.2.02,6.409-.05,9.609.036a10.011,10.011,0,0,1,6.316,1.959,6.174,6.174,0,0,1,2.274,3.733,8.771,8.771,0,0,1-1.438,7.217,5.491,5.491,0,0,1-1.764,1.53c-.434.244-.477.418-.2.844C1058.163,1263.042,1059.525,1265.221,1060.988,1267.512Z" transform="translate(-946.034 -1162.893)"/><path class="a" d="M475.812,1246.339c-.268-.558-.093-.724.517-.72,3.33.021,6.66,0,9.989,0,.216.155.481,0,.7.111a9.066,9.066,0,0,1,5.472,2.064,6.723,6.723,0,0,1,2.154,4.259,9.25,9.25,0,0,1-.56,4.8,6.237,6.237,0,0,1-2.744,3.235c-.446.26-.459.45-.184.87,1.342,2.055,2.656,4.134,3.975,6.206a3.18,3.18,0,0,1,.172.4c-2.061,0-4.076-.009-6.091.007-.39,0-.47-.29-.589-.522-.825-1.592-1.647-3.185-2.432-4.8-.244-.508-.549-.829-1.143-.723-.394.069-.56-.106-.715-.459-.488-1.1-1.012-2.177-1.528-3.261a1.7,1.7,0,0,1-.244-.854c1.089,0,2.183.023,3.276,0a3.232,3.232,0,0,0,3.058-1.6,3.6,3.6,0,0,0-.181-3.88,3.027,3.027,0,0,0-2.485-1.244c-1.55-.052-3.1.006-4.656.018a1.413,1.413,0,0,0-.071.772q-.007,7.888-.007,15.775a1.416,1.416,0,0,1-.072.772H475.85c-.129-.141-.085-.316-.085-.478V1246.7a.926.926,0,0,1,.047-.359Z" transform="translate(-449.325 -1162.944)"/><path class="a" d="M1244.451,1263.062c.153.082.339.071.333.366q-.036,1.853.013,3.707c.011.426-.148.509-.535.507q-8.279-.016-16.559,0c-.5,0-.572-.19-.488-.592a1.133,1.133,0,0,0,.049-.488v-19.953a.658.658,0,0,0-.054-.348c-.157-.637.273-.561.663-.561h16.476a.233.233,0,0,1,.122.234c-.038,1.446.08,2.892-.064,4.336-3.61,0-7.219.016-10.83,0-.526,0-.706.107-.674.662a23.367,23.367,0,0,1,0,2.8c-.04.632.2.732.765.732,2.988-.028,5.977,0,8.965-.024.539,0,.763.1.732.7-.067,1.137-.1,2.28-.059,3.415.016.434-.2.343-.414.345-1.266.012-2.533.018-3.8.026-1.782.1-3.567.013-5.35.048a1.374,1.374,0,0,0-.767.072,29.94,29.94,0,0,0,0,4.015.578.578,0,0,0,.411.074h10.71A.723.723,0,0,0,1244.451,1263.062Z" transform="translate(-1109.152 -1163.012)"/><path class="a" d="M274.563,1258.951l-2.843-7.485c-.366.882-.71,1.638-1.011,2.409q-2.549,6.518-5.083,13.044a.836.836,0,0,1-.918.65c-1.7-.05-3.393-.018-5.178-.018.4-.969.778-1.9,1.171-2.815q1.626-3.8,3.265-7.592c1-2.317,2.006-4.62,3-6.934.585-1.359,1.184-2.714,1.719-4.093a.675.675,0,0,1,.771-.507q2.366.027,4.733,0a.718.718,0,0,1,.8.505q1.725,4.191,3.493,8.366c1.734,4.131,3.46,8.265,5.218,12.385.244.575.177.713-.456.7-1.553-.037-3.108-.044-4.66.006a.845.845,0,0,1-.937-.628c-.355-.925-.732-1.841-1.053-2.776a.625.625,0,0,0-.715-.5c-1.936.02-3.873-.01-5.808.023-.488.009-.648-.122-.672-.61-.06-1.22-.178-2.439-.273-3.659.223-.214.5-.1.748-.1,1.409-.014,2.818-.006,4.224-.006C274.334,1259.3,274.623,1259.357,274.563,1258.951Z" transform="translate(-259.53 -1162.935)"/><path class="a" d="M662.169,1247.982a5.625,5.625,0,0,0-5.262,4.4,6.655,6.655,0,0,0,1.49,6.512,5.626,5.626,0,0,0,6.28,1.388,8.858,8.858,0,0,0,3.082-1.88c.214-.2.355-.256.578-.011.9.988,1.793,1.977,2.722,2.935.3.313.2.461-.051.716a12.831,12.831,0,0,1-6.891,3.564,11.069,11.069,0,0,1-9.293-2.4,10.542,10.542,0,0,1-3.849-6.867,11.585,11.585,0,0,1,.757-6.594,11.009,11.009,0,0,1,4.795-5.18,11.76,11.76,0,0,1,6.747-1.427,12.252,12.252,0,0,1,7.75,3.415c.191.184.332.345.045.671-1.032,1.173-2,2.4-2.994,3.614a7.4,7.4,0,0,0-5.144-2.865A1.091,1.091,0,0,0,662.169,1247.982Z" transform="translate(-603.088 -1160.728)"/><path class="a" d="M776.771,1081.691c0-1.315.01-2.63-.011-3.944,0-.366.1-.54.481-.488a2.745,2.745,0,0,0,.359,0q24.061,0,48.123-.018c.709,0,.878.186.844.864-.06,1.193-.02,2.389-.022,3.585-.216.157-.464.082-.7.082H777.466C777.234,1081.772,776.987,1081.845,776.771,1081.691Z" transform="translate(-713.673 -1015.102)"/><path class="a" d="M1397.026,1256.687c0,3.415-.011,6.838.012,10.255,0,.519-.1.7-.66.683q-2.149-.065-4.3,0c-.587.018-.756-.122-.753-.732.026-5.235,0-10.471.028-15.706,0-.61-.111-.828-.773-.809-1.72.051-3.442,0-5.163.028-.472.008-.61-.13-.594-.6.032-1.171.027-2.343,0-3.514-.01-.45.1-.627.589-.625q5.522.028,11.045,0c.5,0,.579.181.578.621C1397.02,1249.752,1397.026,1253.218,1397.026,1256.687Z" transform="translate(-1247.567 -1162.988)"/><path class="a" d="M902.807,1259.913a1.048,1.048,0,0,0-.037-.7c-1.342-.17-2.683-.023-4.025-.078a7.554,7.554,0,0,1-1.83-.081c-.61-1.315-1.22-2.635-1.852-3.941-.207-.429-.083-.5.346-.5,2.146.016,4.291.007,6.436.007,1.022,0,1.022,0,1-1.045a3.094,3.094,0,0,0-.038-.354c.131-1.891.029-3.781.054-5.68a4.563,4.563,0,0,0-.054-1.27c-.028-.488.113-.709.682-.69,1.479.049,2.963.033,4.444.009.465-.008.61.122.61.6q-.022,10.394,0,20.789c0,.444-.122.568-.561.561-1.528-.026-3.059-.032-4.587,0-.467.011-.583-.183-.585-.571a33.606,33.606,0,0,0,.052-3.71A27.639,27.639,0,0,0,902.807,1259.913Z" transform="translate(-817.461 -1162.911)"/><path class="a" d="M839.588,1246.132c-.234-.488.14-.417.4-.418q2.593-.007,5.186,0c.17.155.1.359.1.54v20.84c0,.185.055.384-.08.552h-5.009c-.229,0-.559.139-.6-.287a1.264,1.264,0,0,1-.044-.5v-20.231A1.3,1.3,0,0,1,839.588,1246.132Z" transform="translate(-768.773 -1163.023)"/><path class="a" d="M776.84,1135.282c-.01-1.422-.01-1.422,1.4-1.422h47.265c1.117,0,1.117,0,1.115,1.132,0,.095,0,.191-.008.287-.216.155-.463.08-.7.08h-48.38A1.119,1.119,0,0,1,776.84,1135.282Z" transform="translate(-713.741 -1064.816)"/><path class="a" d="M1491,1245.648c1.858,0,3.579.015,5.3-.01.437-.006.581.11.57.557-.029,1.22-.026,2.44,0,3.659.009.412-.122.534-.529.522-.908-.027-1.816,0-2.725-.01-.2,0-.4.044-.524-.234C1492.415,1248.656,1491.718,1247.194,1491,1245.648Z" transform="translate(-1340.796 -1162.96)"/><path class="b" d="M875.921,1477.287h.7a10.519,10.519,0,0,1,.077,2.391,18.456,18.456,0,0,1-.036,2.479l.015.878a5.422,5.422,0,0,1-.052,1.707c-.516.083-.707-.359-.945-.645-1.255-1.508-2.477-3.049-3.715-4.567a1.794,1.794,0,0,0-.348-.236v4.8c0,.3.138.679-.444.665-.529-.012-.41-.345-.41-.631q-.006-3.15,0-6.3c0-.182-.134-.452.182-.53.244-.061.366.1.514.283q1.908,2.383,3.847,4.742c.122.151.22.373.47.388a22.963,22.963,0,0,0,.076-2.957A20.012,20.012,0,0,1,875.921,1477.287Z" transform="translate(-796.188 -1366.351)"/><path class="c" d="M765.637,1479.567a3.262,3.262,0,0,1,2.264-3.171,4.059,4.059,0,0,1,4.01.622c.226.165.366.3.108.61-.278.335-.413.133-.629-.027a3.079,3.079,0,0,0-4.687,3.808,2.987,2.987,0,0,0,3.366,1.538c.16-.042.321-.083.478-.135a1.643,1.643,0,0,0,.959-2.179c-.106-.236-.3-.206-.481-.208-.55,0-1.1-.012-1.649,0-.3.009-.428-.072-.422-.4s.191-.326.421-.324c.956,0,1.912,0,2.868.007a11.473,11.473,0,0,1,.031,2.861,3.936,3.936,0,0,1-5.977-.172,3.177,3.177,0,0,1-.657-1.982,1.769,1.769,0,0,1,0-.848Z" transform="translate(-703.862 -1365.328)"/><path class="d" d="M615.829,1483.78a3.435,3.435,0,0,1-2.949-1.376c-.1-.133-.391-.318-.122-.46.211-.109.454-.488.79-.1a2.878,2.878,0,0,0,3.867.673.906.906,0,0,0,.494-.866.935.935,0,0,0-.523-.917,9.364,9.364,0,0,0-2.494-.688,3.378,3.378,0,0,1-1.342-.562,1.8,1.8,0,0,1,.35-3,4.019,4.019,0,0,1,3.924.122.957.957,0,0,1,.488.488c.056.161.473.257.135.488-.231.16-.465.374-.782.034a2.754,2.754,0,0,0-3.074-.518,1.1,1.1,0,0,0-.846,1.1c.009.511.427.778.879.9.771.2,1.563.334,2.331.547.842.234,1.6.588,1.8,1.586a1.941,1.941,0,0,1-1.091,2.136A4.671,4.671,0,0,1,615.829,1483.78Z" transform="translate(-569.576 -1365.249)"/><path class="d" d="M1033.284,1483.863c-1.063-.166-2.142-.3-2.739-1.4-.112-.207-.331-.4,0-.583.244-.137.419-.244.689.094a2.935,2.935,0,0,0,3.337.881,1.315,1.315,0,0,0,1.021-1.22c.011-.633-.488-.892-.967-1.057-.906-.311-1.887-.34-2.791-.687a1.668,1.668,0,0,1-1.259-1.783,1.766,1.766,0,0,1,1.247-1.645c1.212-.57,3.253-.515,4.171.7.111.145.426.3.1.488-.183.1-.355.421-.7.061a3.009,3.009,0,0,0-3.337-.466,1.041,1.041,0,0,0-.617,1.025.9.9,0,0,0,.721.854,20.462,20.462,0,0,0,2.47.577,2,2,0,0,1,1.681,2.714,1.814,1.814,0,0,1-1.213,1.107A4.532,4.532,0,0,1,1033.284,1483.863Z" transform="translate(-936.349 -1365.321)"/><path class="b" d="M523.844,1478.017a8.617,8.617,0,0,0-.091,2.177c-.017.4.316.272.521.274,1.211.011,2.422.007,3.635.009.111.778.111.768-.61.787-1.144.028-2.289-.077-3.431.057a6.679,6.679,0,0,0-.1,2.24c-.01.334.314.215.5.216,1.145.01,2.291,0,3.435.007.288,0,.628-.106.643.415s-.3.434-.61.434c-1.431,0-2.863-.01-4.293.01-.4,0-.542-.109-.538-.523q.028-3.22,0-6.44c0-.424.156-.517.543-.512,1.36.018,2.721.044,4.079-.01.61-.024.732.222.659.732a29.876,29.876,0,0,1-3.136.072A4.886,4.886,0,0,0,523.844,1478.017Z" transform="translate(-490.776 -1366.24)"/><path class="d" d="M1226.45,1477.226h.723a13.582,13.582,0,0,1,.079,2.672,10.768,10.768,0,0,1-.037,1.909,2.924,2.924,0,0,1-4.391,2.6,2.564,2.564,0,0,1-1.356-2.091c-.022-1.529-.009-3.061-.01-4.59,0-.263-.05-.517.375-.518.4,0,.477.152.473.509-.012,1.464-.012,2.916.01,4.374a1.84,1.84,0,0,0,1.829,1.871,2.038,2.038,0,0,0,2.188-1.77,21.806,21.806,0,0,0,.02-3.358C1226.5,1478.307,1226.317,1477.756,1226.45,1477.226Z" transform="translate(-1104.128 -1366.287)"/><path class="e" d="M1123.236,1477.175c1.789,0,3.579.027,5.367-.021.589-.016.7.217.627.7a5.964,5.964,0,0,1-1.716.106c-.275.029-.561-.075-.825.074-.13,1.931-.054,3.864-.04,5.8,0,.662-.183.917-.832.8-.166-.244-.077-.509-.082-.762-.042-1.951.07-3.9-.062-5.844h-.006c-.808-.166-1.635.048-2.44-.122l-.017-.017A.782.782,0,0,1,1123.236,1477.175Z" transform="translate(-1017.802 -1366.238)"/><path class="f" d="M710.94,1480.9c0-1.072.006-2.143,0-3.215,0-.3.016-.495.406-.488.344.007.45.122.449.456q-.016,3.286,0,6.573c0,.348-.122.441-.455.451-.4.012-.4-.2-.4-.488C710.947,1483.093,710.939,1482,710.94,1480.9Z" transform="translate(-655.88 -1366.277)"/><path class="g" d="M1421.008,1480.969v3.153c0,.294.043.555-.415.553-.416,0-.455-.184-.454-.518q.015-3.225,0-6.448c0-.335.037-.518.454-.518.458,0,.415.262.413.555C1421.006,1478.819,1421.008,1479.894,1421.008,1480.969Z" transform="translate(-1278.578 -1366.27)"/><path class="h" d="M951.687,801.012c-2.676.009-5.353.024-8.029.023q-7.528,0-15.057-.022c.227-.2.5-.115.756-.115q10.787-.007,21.574,0C951.183,800.891,951.458,800.807,951.687,801.012Z" transform="translate(-846.993 -772.446)"/><path class="h" d="M475.721,1251.52q.012,5.521.023,11.041.01,5.091.02,10.181c-.262-.2-.156-.488-.156-.732q-.009-9.905,0-19.809C475.6,1251.972,475.531,1251.721,475.721,1251.52Z" transform="translate(-449.233 -1168.125)"/><path class="h" d="M919,1526.147l.052-1.708A2.363,2.363,0,0,1,919,1526.147Z" transform="translate(-838.563 -1407.756)"/><path class="h" d="M563.533,1245.672a1.069,1.069,0,0,1-.7-.112C563.067,1245.579,563.324,1245.473,563.533,1245.672Z" transform="translate(-525.836 -1162.882)"/><path class="i" d="M428.05,1480.369a3.548,3.548,0,0,0-2.657-3.058,18.5,18.5,0,0,0-2.913-.141c-.577-.055-.756.112-.762.732a50.366,50.366,0,0,1-.1,5.611c-.122.988.1,1.126,1.125,1.126h.717c.383,0,.765-.009,1.148,0a3.246,3.246,0,0,0,1.16-.282C427.365,1483.8,428.18,1482.372,428.05,1480.369Zm-.854,1.043a2.666,2.666,0,0,1-2.519,2.361c-.662.012-1.523.224-1.937-.1-.44-.35-.1-1.248-.14-1.905-.019-.309,0-.62,0-.929,0-.81.009-1.621,0-2.431,0-.309.044-.479.42-.488a11.374,11.374,0,0,1,2.132.135c1.405.267,2.2,1.59,2.039,3.359Z" transform="translate(-401.824 -1366.243)"/><path class="j" d="M1499,1538.528v.266h.573v-.122C1499.366,1538.694,1499.224,1538.451,1499,1538.528Z" transform="translate(-1347.82 -1420.113)"/><path class="d" d="M1484.069,1476.99a3.808,3.808,0,0,0-4.269-.794,3.3,3.3,0,0,0-2.16,3.011v1.137a3.659,3.659,0,0,0,2.606,3.182c.25-.193.422-.068.573.14a5.058,5.058,0,0,1,.571-.017,3.762,3.762,0,0,0,3.46-2.366A3.945,3.945,0,0,0,1484.069,1476.99Zm-2.915,5.822a2.9,2.9,0,0,1-2.732-3.071,2.935,2.935,0,1,1,5.866.069,2.874,2.874,0,0,1-3.132,3.007Z" transform="translate(-1329.065 -1365.117)"/><path class="d" d="M1499,1537.944c.223-.082.366.167.573.14C1499.423,1537.875,1499.251,1537.75,1499,1537.944Z" transform="translate(-1347.82 -1419.529)"/><path class="h" d="M1476.6,1503.23a1.218,1.218,0,0,0,0,1.136A3.057,3.057,0,0,1,1476.6,1503.23Z" transform="translate(-1328.027 -1389.134)"/><path class="h" d="M1477.257,1504.367v-1.137A3.052,3.052,0,0,0,1477.257,1504.367Z" transform="translate(-1328.682 -1389.134)"/><path class="c" d="M1323.637,1478.573l-.439-.449h0a4.258,4.258,0,0,0-1.508-.732,21.473,21.473,0,0,0-3.62-.129l-.042,6.877h0c-.195.387-.178.61.356.588.835-.03,1.672.009,2.509-.012a3.6,3.6,0,0,0,3.336-2.623A4.5,4.5,0,0,0,1323.637,1478.573Zm-.136,2.874a2.716,2.716,0,0,1-2.644,2.406c-.641,0-1.486.217-1.865-.1s-.078-1.2-.107-1.829c-.015-.333,0-.667,0-1,0-.787.011-1.575,0-2.362-.007-.366.067-.588.512-.544.638.062,1.289.027,1.921.122,1.486.225,2.339,1.547,2.183,3.313Z" transform="translate(-1188.822 -1366.322)"/><path class="h" d="M1318.015,1477.33a.385.385,0,0,0-.16.366v6.184a1.065,1.065,0,0,0,.112.323C1317.927,1481.915,1317.843,1479.622,1318.015,1477.33Z" transform="translate(-1188.767 -1366.393)"/><path class="h" d="M1318.449,1477.33c-.172,2.292-.087,4.583-.042,6.877h0Z" transform="translate(-1189.2 -1366.393)"/><path class="j" d="M1361.669,1484.869a.391.391,0,0,0-.439-.449h0A.836.836,0,0,1,1361.669,1484.869Z" transform="translate(-1226.854 -1372.618)"/><path class="j" d="M1361.23,1484.42l.439.449A.836.836,0,0,0,1361.23,1484.42Z" transform="translate(-1226.854 -1372.618)"/></g></svg>