<svg xmlns="http://www.w3.org/2000/svg" width="125.924" height="85" viewBox="0 0 125.924 85"><defs><style>.a{fill:#fec809;}.b{fill:#fdc80a;}.c{fill:#fcc809;}.d{fill:#fcc80a;}.e{fill:#fcc80b;}.f{fill:#fbc70d;}.g{fill:#fec808;}.h{fill:#fdfdfd;}.i{fill:#fdc809;}.j{fill:#fefefe;}</style></defs><g transform="translate(0 0.12)"><path class="a" d="M796.015,566.82a8.9,8.9,0,0,0,1.713.3,17.939,17.939,0,0,1,13.019,10.006,17.389,17.389,0,0,1,1.5,5.117,27.138,27.138,0,0,1,.2,3.611q-.005,7.1,0,14.209c0,.56.006.539-.528.349q-2.156-.757-4.327-1.475a.6.6,0,0,1-.493-.679c.024-1.692,0-3.386.02-5.078.005-.4-.1-.508-.5-.506-3.847.017-7.694.01-11.542.008a.734.734,0,0,1-.611-.165c-1.683-1.7-3.379-3.386-5.132-5.138l.743-.051a1.075,1.075,0,0,1,.4-.031h15.708a1.092,1.092,0,0,1,.4.031c.357.074.535-.03.524-.436-.025-.842-.017-1.684-.024-2.531-.087-.236.031-.494-.074-.728a11.638,11.638,0,0,0-2.191-6.1,12.086,12.086,0,0,0-7.307-4.979,9.176,9.176,0,0,0-1.986-.312,7.884,7.884,0,0,0-1.787,0,11.718,11.718,0,0,0-6.949,2.715,12.264,12.264,0,0,0-4.15,6.294,8.253,8.253,0,0,0-.386,2.39c-.111.231.012.487-.076.721-.006,1.18-.018,2.356-.018,3.54,0,5.2.006,10.4-.011,15.6,0,.465.112.586.58.586q14.521-.022,29.042-.01c.766,0,.664-.106.668.689.005,1.4-.012,2.8.01,4.207.006.372-.113.446-.462.445q-17.366-.013-34.733,0c-.325,0-.436-.071-.436-.418.017-8.432,0-16.864.046-25.3a16.029,16.029,0,0,1,1.509-6.345,17.647,17.647,0,0,1,2.431-3.973,17.379,17.379,0,0,1,4.555-3.955,18.238,18.238,0,0,1,5.724-2.254,14.1,14.1,0,0,0,1.961-.362H795.1a.556.556,0,0,0,.513,0Z" transform="translate(-731.677 -566.93)"/><path class="a" d="M1570.573,1261.276c-4.02,0-8.039-.01-12.058.011-.467,0-.557-.133-.555-.573q.025-7.286,0-14.574c0-.436.092-.574.557-.572q5.643.031,11.288,0c.431,0,.565.135.547.56-.031.751-.034,1.506,0,2.257.019.406-.126.476-.495.474-2.429-.016-4.857,0-7.286-.017-.426,0-.558.1-.531.531a14.958,14.958,0,0,1,0,1.949c-.031.459.148.524.55.516,2.155-.019,4.31,0,6.465-.019.413,0,.517.117.5.511-.031.751-.025,1.505,0,2.257.01.331-.08.436-.423.432-.922-.018-1.847,0-2.77.01-1.211.072-2.423.01-3.634.033a1.715,1.715,0,0,0-.611.038,16.284,16.284,0,0,0-.026,2.888.99.99,0,0,0,.551.051q3.689,0,7.378.005a1.107,1.107,0,0,1,.553.047Z" transform="translate(-1444.648 -1186.455)"/><path class="a" d="M1055.415,1261.267c-1.527,0-2.962-.007-4.4.007-.229,0-.287-.137-.362-.28-.654-1.235-1.309-2.468-1.947-3.712-.125-.245-.25-.38-.529-.328-.362.069-.536-.113-.683-.431-.436-.932-.936-1.833-1.319-2.849h2.292c2.189.01,2.956-1.55,2.482-3.352a2.1,2.1,0,0,0-1.706-1.382c-1.1-.158-2.211-.04-3.316-.1-.367-.019-.449.1-.448.458.012,3.813,0,7.628.017,11.443,0,.429-.114.547-.539.535-1.059-.031-2.121-.018-3.181,0-.282,0-.382-.066-.381-.368q.013-7.466,0-14.932c0-.314.087-.407.4-.406,2.292.014,4.585-.036,6.875.025a7.164,7.164,0,0,1,4.519,1.4,4.417,4.417,0,0,1,1.627,2.671,6.275,6.275,0,0,1-1.029,5.164,3.928,3.928,0,0,1-1.262,1.094c-.311.175-.341.3-.143.6C1053.394,1258.069,1054.368,1259.627,1055.415,1261.267Z" transform="translate(-973.167 -1186.448)"/><path class="a" d="M475.778,1246.135c-.192-.4-.066-.518.37-.515,2.382.015,4.765,0,7.147,0,.154.111.344,0,.5.079a6.488,6.488,0,0,1,3.915,1.477,4.81,4.81,0,0,1,1.541,3.047,6.619,6.619,0,0,1-.4,3.432,4.462,4.462,0,0,1-1.964,2.314c-.319.186-.328.322-.132.622.96,1.47,1.9,2.958,2.844,4.44a2.266,2.266,0,0,1,.123.285c-1.475,0-2.917-.006-4.358.005-.279,0-.336-.208-.422-.373-.59-1.139-1.178-2.279-1.74-3.432-.175-.364-.393-.593-.818-.517-.282.05-.4-.076-.511-.328-.349-.785-.724-1.558-1.093-2.333a1.217,1.217,0,0,1-.175-.611c.779,0,1.562.017,2.344,0a2.313,2.313,0,0,0,2.188-1.141,2.572,2.572,0,0,0-.129-2.776,2.166,2.166,0,0,0-1.778-.89c-1.109-.038-2.221,0-3.331.013a1.012,1.012,0,0,0-.051.552q-.005,5.644-.005,11.286a1.013,1.013,0,0,1-.052.552H475.8c-.093-.1-.061-.226-.061-.342v-14.591a.662.662,0,0,1,.034-.257Z" transform="translate(-456.827 -1186.501)"/><path class="a" d="M1239.536,1258.121c.109.058.243.051.238.262q-.025,1.326.01,2.652c.008.3-.106.364-.383.363q-5.924-.011-11.848,0c-.354,0-.409-.136-.349-.423a.812.812,0,0,0,.035-.349V1246.35a.469.469,0,0,0-.038-.249c-.113-.456.2-.4.475-.4h11.788a.167.167,0,0,1,.087.167c-.027,1.034.058,2.069-.045,3.1-2.583,0-5.165.011-7.749,0-.376,0-.505.077-.483.474a16.718,16.718,0,0,1,0,2c-.029.452.14.524.547.524,2.138-.02,4.276,0,6.414-.017.386,0,.546.073.524.5-.048.813-.072,1.631-.043,2.443.011.311-.141.245-.3.247-.906.009-1.812.013-2.718.018-1.275.073-2.552.01-3.828.034a.984.984,0,0,0-.549.052,21.446,21.446,0,0,0,0,2.873.414.414,0,0,0,.294.053h7.663A.516.516,0,0,0,1239.536,1258.121Z" transform="translate(-1142.732 -1186.572)"/><path class="a" d="M270.286,1255.155l-2.034-5.356c-.262.631-.508,1.172-.723,1.724q-1.824,4.664-3.636,9.333a.6.6,0,0,1-.657.465c-1.213-.036-2.428-.013-3.7-.013.288-.694.557-1.357.838-2.014q1.163-2.718,2.336-5.432c.715-1.658,1.436-3.306,2.149-4.961.419-.972.847-1.942,1.23-2.929a.483.483,0,0,1,.552-.363q1.693.02,3.386,0a.514.514,0,0,1,.57.361q1.234,3,2.5,5.986c1.241,2.956,2.476,5.913,3.733,8.861.175.411.127.51-.326.5-1.111-.026-2.224-.031-3.335,0a.6.6,0,0,1-.67-.449c-.254-.662-.524-1.317-.753-1.986a.447.447,0,0,0-.511-.355c-1.385.014-2.771-.007-4.156.017-.349.006-.463-.087-.481-.436-.043-.873-.127-1.745-.2-2.618.16-.153.358-.071.535-.072,1.008-.01,2.016,0,3.022,0C270.122,1255.4,270.329,1255.446,270.286,1255.155Z" transform="translate(-259.53 -1186.491)"/><path class="a" d="M658.938,1246.592a4.024,4.024,0,0,0-3.765,3.146,4.761,4.761,0,0,0,1.066,4.659,4.025,4.025,0,0,0,4.493.993,6.339,6.339,0,0,0,2.205-1.345c.153-.143.254-.183.414-.008.641.707,1.283,1.415,1.948,2.1.216.224.147.33-.037.512a9.18,9.18,0,0,1-4.931,2.55,7.92,7.92,0,0,1-6.649-1.717,7.542,7.542,0,0,1-2.754-4.913,8.288,8.288,0,0,1,.542-4.718,7.876,7.876,0,0,1,3.43-3.706,8.414,8.414,0,0,1,4.828-1.021,8.767,8.767,0,0,1,5.545,2.443c.137.132.237.247.032.48-.738.84-1.43,1.719-2.142,2.586a5.291,5.291,0,0,0-3.68-2.05A.78.78,0,0,0,658.938,1246.592Z" transform="translate(-616.667 -1184.198)"/><path class="a" d="M776.768,1080.424c0-.941.007-1.881-.008-2.822,0-.262.068-.387.344-.349a2,2,0,0,0,.256,0q17.215,0,34.431-.013c.507,0,.628.133.6.618-.043.853-.014,1.709-.016,2.565-.154.113-.332.059-.5.059H777.265C777.1,1080.483,776.922,1080.535,776.768,1080.424Z" transform="translate(-731.622 -1032.816)"/><path class="a" d="M1393.553,1253.552c0,2.444-.008,4.892.009,7.338,0,.371-.073.5-.472.489q-1.538-.046-3.078,0c-.42.013-.541-.087-.539-.524.018-3.745,0-7.492.02-11.237,0-.436-.079-.593-.553-.579-1.23.037-2.463,0-3.694.02-.338.005-.436-.094-.425-.428.023-.838.019-1.676,0-2.514-.007-.322.071-.448.422-.447q3.951.02,7.9,0c.359,0,.415.129.414.444C1393.549,1248.59,1393.553,1251.071,1393.553,1253.552Z" transform="translate(-1286.618 -1186.547)"/><path class="a" d="M900.576,1255.835a.749.749,0,0,0-.026-.5c-.96-.121-1.92-.016-2.88-.056a5.408,5.408,0,0,1-1.309-.058c-.436-.941-.873-1.885-1.325-2.82-.148-.307-.059-.36.248-.358,1.535.011,3.07.005,4.605.005.731,0,.731,0,.716-.748a2.21,2.21,0,0,0-.027-.253c.093-1.353.021-2.705.038-4.064a3.267,3.267,0,0,0-.038-.908c-.02-.349.081-.507.488-.494,1.059.035,2.12.023,3.179.006.333-.005.436.087.436.431q-.016,7.437,0,14.874c0,.318-.087.407-.4.4-1.094-.018-2.189-.023-3.282,0-.334.008-.417-.131-.419-.408a24.061,24.061,0,0,0,.038-2.655A19.791,19.791,0,0,0,900.576,1255.835Z" transform="translate(-839.513 -1186.466)"/><path class="a" d="M839.567,1246.012c-.168-.349.1-.3.288-.3q1.855-.005,3.711,0c.121.111.071.257.071.386v14.911c0,.133.039.275-.058.4h-3.584c-.164,0-.4.1-.428-.205a.9.9,0,0,1-.031-.354v-14.475A.931.931,0,0,1,839.567,1246.012Z" transform="translate(-788.9 -1186.584)"/><path class="a" d="M776.839,1134.878c-.007-1.018-.007-1.018,1-1.018h33.817c.8,0,.8,0,.8.81,0,.068,0,.137-.005.205-.154.111-.332.057-.5.057H777.338A.8.8,0,0,1,776.839,1134.878Z" transform="translate(-731.694 -1084.495)"/><path class="a" d="M1491,1245.645c1.329,0,2.56.01,3.791-.007.313,0,.415.079.408.4-.021.873-.018,1.745,0,2.618.006.295-.087.382-.379.373-.649-.019-1.3,0-1.95-.007-.145,0-.285.031-.375-.168C1492.012,1247.8,1491.514,1246.751,1491,1245.645Z" transform="translate(-1383.532 -1186.518)"/><path class="b" d="M874.446,1477.286h.5A7.526,7.526,0,0,1,875,1479a13.217,13.217,0,0,1-.025,1.773l.01.628a3.879,3.879,0,0,1-.038,1.222c-.369.059-.506-.257-.676-.462-.9-1.079-1.772-2.182-2.658-3.267a1.274,1.274,0,0,0-.249-.169v3.434c0,.217.1.486-.318.476-.379-.009-.293-.247-.293-.451q0-2.254,0-4.508c0-.13-.1-.324.13-.38.175-.044.262.072.367.2q1.365,1.705,2.752,3.393c.087.108.157.267.336.278a16.436,16.436,0,0,0,.054-2.115A14.318,14.318,0,0,1,874.446,1477.286Z" transform="translate(-817.399 -1397.947)"/><path class="c" d="M765.623,1478.586a2.334,2.334,0,0,1,1.62-2.269,2.9,2.9,0,0,1,2.869.445c.161.118.262.214.078.436-.2.24-.3.1-.45-.019a2.2,2.2,0,0,0-3.354,2.724,2.137,2.137,0,0,0,2.409,1.1c.114-.03.229-.059.342-.1a1.176,1.176,0,0,0,.686-1.559c-.076-.168-.211-.148-.344-.149-.394,0-.785-.009-1.18,0-.212.006-.306-.051-.3-.286s.137-.233.3-.232c.684,0,1.368,0,2.052.005a8.2,8.2,0,0,1,.022,2.047,2.816,2.816,0,0,1-4.276-.123,2.273,2.273,0,0,1-.47-1.418,1.266,1.266,0,0,1,0-.607Z" transform="translate(-721.424 -1396.884)"/><path class="d" d="M614.924,1481.574a2.458,2.458,0,0,1-2.11-.984c-.072-.1-.28-.228-.087-.329.151-.078.325-.349.565-.073a2.059,2.059,0,0,0,2.766.482.648.648,0,0,0,.353-.62.669.669,0,0,0-.374-.656,6.7,6.7,0,0,0-1.785-.492,2.42,2.42,0,0,1-.96-.4,1.29,1.29,0,0,1,.25-2.148,2.876,2.876,0,0,1,2.807.087.684.684,0,0,1,.349.349c.04.115.339.184.1.349-.165.114-.333.268-.559.024a1.971,1.971,0,0,0-2.2-.371.79.79,0,0,0-.606.785c.006.366.305.557.629.642.552.146,1.118.239,1.668.392.6.168,1.141.421,1.288,1.135a1.389,1.389,0,0,1-.78,1.528A3.342,3.342,0,0,1,614.924,1481.574Z" transform="translate(-581.831 -1396.802)"/><path class="d" d="M1032.455,1481.657c-.761-.118-1.532-.213-1.959-1-.08-.148-.237-.283,0-.417.175-.1.3-.175.493.067a2.1,2.1,0,0,0,2.388.63.941.941,0,0,0,.73-.873c.008-.453-.349-.638-.692-.757-.648-.222-1.35-.243-2-.491a1.193,1.193,0,0,1-.9-1.276,1.264,1.264,0,0,1,.892-1.177,2.606,2.606,0,0,1,2.985.5c.079.1.3.217.071.349-.131.074-.254.3-.5.044a2.153,2.153,0,0,0-2.388-.333.745.745,0,0,0-.442.733.647.647,0,0,0,.516.611,14.636,14.636,0,0,0,1.767.413,1.428,1.428,0,0,1,1.2,1.942,1.3,1.3,0,0,1-.867.792A3.241,3.241,0,0,1,1032.455,1481.657Z" transform="translate(-963.1 -1396.877)"/><path class="b" d="M523.575,1477.772a6.166,6.166,0,0,0-.065,1.558c-.012.285.226.195.373.2.867.008,1.733.005,2.6.006.079.557.079.55-.436.563-.819.02-1.638-.055-2.455.041a4.778,4.778,0,0,0-.074,1.6c-.007.239.224.154.358.155.819.007,1.639,0,2.457.005.206,0,.449-.076.46.3s-.216.311-.436.311c-1.024,0-2.048-.007-3.072.007-.284,0-.387-.078-.385-.375q.02-2.3,0-4.608c0-.3.112-.37.388-.366.973.013,1.947.031,2.918-.007.436-.017.524.159.471.524a21.373,21.373,0,0,1-2.244.052A3.5,3.5,0,0,0,523.575,1477.772Z" transform="translate(-499.916 -1397.832)"/><path class="d" d="M1225.029,1477.221h.517a9.719,9.719,0,0,1,.057,1.912,7.688,7.688,0,0,1-.026,1.366,2.092,2.092,0,0,1-3.142,1.862,1.835,1.835,0,0,1-.97-1.5c-.016-1.094-.006-2.19-.007-3.284,0-.188-.036-.37.269-.371.283,0,.341.108.339.364-.009,1.047-.009,2.086.007,3.129a1.317,1.317,0,0,0,1.309,1.339,1.458,1.458,0,0,0,1.566-1.266,15.6,15.6,0,0,0,.014-2.4C1225.064,1477.995,1224.934,1477.6,1225.029,1477.221Z" transform="translate(-1137.51 -1397.881)"/><path class="e" d="M1123.208,1477.169c1.28,0,2.56.019,3.84-.015.422-.011.5.155.449.5a4.265,4.265,0,0,1-1.228.076c-.2.021-.4-.053-.59.053-.093,1.381-.038,2.765-.029,4.146,0,.474-.131.656-.6.572-.119-.174-.055-.364-.058-.545-.03-1.4.05-2.788-.044-4.181h0c-.578-.119-1.169.034-1.745-.087l-.012-.012A.56.56,0,0,1,1123.208,1477.169Z" transform="translate(-1047.773 -1397.83)"/><path class="f" d="M710.94,1479.848c0-.767,0-1.533,0-2.3,0-.211.011-.354.291-.349.246.005.322.087.321.326q-.011,2.351,0,4.7c0,.249-.087.315-.326.323-.285.009-.288-.146-.287-.349C710.945,1481.416,710.939,1480.632,710.94,1479.848Z" transform="translate(-671.546 -1397.871)"/><path class="g" d="M1420.761,1479.894v2.256c0,.21.031.4-.3.4-.3,0-.326-.132-.325-.371q.01-2.307,0-4.614c0-.24.026-.371.325-.371.328,0,.3.188.3.4C1420.759,1478.356,1420.761,1479.125,1420.761,1479.894Z" transform="translate(-1318.855 -1397.863)"/><path class="h" d="M945.118,800.973c-1.915.006-3.83.017-5.745.017q-5.386,0-10.773-.016c.162-.144.359-.082.541-.082q7.718-.005,15.436,0C944.758,800.886,944.954,800.827,945.118,800.973Z" transform="translate(-870.212 -780.569)"/><path class="h" d="M475.682,1251.52q.009,3.95.017,7.9.007,3.643.014,7.284c-.188-.141-.112-.349-.112-.524q-.006-7.087,0-14.173C475.6,1251.844,475.547,1251.664,475.682,1251.52Z" transform="translate(-456.731 -1191.887)"/><path class="h" d="M919,1525.662l.038-1.222A1.691,1.691,0,0,1,919,1525.662Z" transform="translate(-861.449 -1440.989)"/><path class="h" d="M563.333,1245.637a.765.765,0,0,1-.5-.08C563,1245.571,563.183,1245.495,563.333,1245.637Z" transform="translate(-536.362 -1186.436)"/><path class="i" d="M426.212,1479.456a2.539,2.539,0,0,0-1.9-2.188,13.25,13.25,0,0,0-2.084-.1c-.413-.039-.541.08-.545.524a36.033,36.033,0,0,1-.069,4.014c-.087.707.071.805.8.805h.513c.274,0,.547-.006.821,0a2.323,2.323,0,0,0,.83-.2A2.562,2.562,0,0,0,426.212,1479.456Zm-.611.746a1.908,1.908,0,0,1-1.8,1.69c-.474.009-1.09.161-1.386-.075-.315-.25-.07-.893-.1-1.363-.014-.221,0-.443,0-.665,0-.579.006-1.16,0-1.739,0-.221.031-.343.3-.349a8.14,8.14,0,0,1,1.525.1,2.015,2.015,0,0,1,1.459,2.4Z" transform="translate(-407.449 -1397.835)"/><path class="j" d="M1499,1538.524v.19h.41v-.087C1499.262,1538.643,1499.161,1538.468,1499,1538.524Z" transform="translate(-1390.834 -1453.834)"/><path class="d" d="M1482.24,1476.674a2.724,2.724,0,0,0-3.054-.568,2.36,2.36,0,0,0-1.546,2.155v.813a2.618,2.618,0,0,0,1.865,2.277c.179-.138.3-.049.41.1a3.646,3.646,0,0,1,.408-.012,2.692,2.692,0,0,0,2.476-1.693A2.823,2.823,0,0,0,1482.24,1476.674Zm-2.086,4.165a2.078,2.078,0,0,1-1.955-2.2,2.1,2.1,0,1,1,4.2.05,2.056,2.056,0,0,1-2.241,2.151Z" transform="translate(-1371.338 -1396.665)"/><path class="d" d="M1499,1537.917c.16-.059.262.12.41.1C1499.3,1537.867,1499.18,1537.778,1499,1537.917Z" transform="translate(-1390.834 -1453.227)"/><path class="h" d="M1476.558,1503.23a.873.873,0,0,0,0,.813A2.19,2.19,0,0,1,1476.558,1503.23Z" transform="translate(-1370.259 -1421.63)"/><path class="h" d="M1477.241,1504.043v-.813A2.185,2.185,0,0,0,1477.241,1504.043Z" transform="translate(-1370.939 -1421.63)"/><path class="c" d="M1322.009,1478.2l-.314-.321h0a3.044,3.044,0,0,0-1.079-.524,15.38,15.38,0,0,0-2.59-.093l-.03,4.92h0c-.14.277-.127.436.255.421.6-.022,1.2.006,1.8-.009a2.577,2.577,0,0,0,2.387-1.877A3.217,3.217,0,0,0,1322.009,1478.2Zm-.1,2.056a1.944,1.944,0,0,1-1.892,1.722c-.458,0-1.063.155-1.334-.074s-.056-.859-.077-1.309c-.01-.238,0-.477,0-.716,0-.563.008-1.127,0-1.69-.005-.262.048-.421.367-.389.456.044.922.019,1.374.087a1.984,1.984,0,0,1,1.562,2.37Z" transform="translate(-1225.552 -1397.918)"/><path class="h" d="M1317.969,1477.33a.275.275,0,0,0-.114.262v4.425a.763.763,0,0,0,.08.231C1317.906,1480.61,1317.846,1478.97,1317.969,1477.33Z" transform="translate(-1225.494 -1397.991)"/><path class="h" d="M1318.42,1477.33c-.123,1.64-.062,3.279-.03,4.92h0Z" transform="translate(-1225.945 -1397.991)"/><path class="j" d="M1361.544,1484.741a.28.28,0,0,0-.314-.321h0A.6.6,0,0,1,1361.544,1484.741Z" transform="translate(-1265.087 -1404.462)"/><path class="j" d="M1361.23,1484.42l.314.321A.6.6,0,0,0,1361.23,1484.42Z" transform="translate(-1265.087 -1404.462)"/></g></svg>